# Made in Blockbench 4.10.3
mtllib deadbush.mtl

o deadbush
v 0.5 1 0
v 0.5 1 0
v 0.5 0 0
v 0.5 0 0
v -0.5 1 0
v -0.5 1 0
v -0.5 0 0
v -0.5 0 0
vt 0 1
vt 0 1
vt 0 1
vt 0 1
vt 0 1
vt 1 1
vt 1 0
vt 0 0
vn 0 0 -1
vn 0 0 1
usemtl m_3f9d8dd6-e966-532d-c40b-23eeae44175f
f 4/4/1 7/3/1 5/2/1 2/1/1
f 8/8/2 3/7/2 1/6/2 6/5/2
o deadbush
v 1.1102230246251565e-16 1 -0.5
v 1.1102230246251565e-16 1 -0.5
v 1.1102230246251565e-16 0 -0.5
v 1.1102230246251565e-16 0 -0.5
v -1.1102230246251565e-16 1 0.5
v -1.1102230246251565e-16 1 0.5
v -1.1102230246251565e-16 0 0.5
v -1.1102230246251565e-16 0 0.5
vt 0 1
vt 0 1
vt 0 1
vt 0 1
vt 0 1
vt 1 1
vt 1 0
vt 0 0
vn -1 0 -2.220446049250313e-16
vn 1 0 2.220446049250313e-16
usemtl m_3f9d8dd6-e966-532d-c40b-23eeae44175f
f 12/12/3 15/11/3 13/10/3 10/9/3
f 16/16/4 11/15/4 9/14/4 14/13/4