# Made in Blockbench 4.10.3
mtllib fence.mtl

o cube
v 0.375 0.9375 0.0625
v 0.375 0.9375 -0.0625
v 0.375 0.75 0.0625
v 0.375 0.75 -0.0625
v -0.375 0.9375 -0.0625
v -0.375 0.9375 0.0625
v -0.375 0.75 -0.0625
v -0.375 0.75 0.0625
vt 0.25 0.8125
vt 1 0.8125
vt 1 0.625
vt 0.25 0.625
vt 0.25 0.8125
vt 1 0.8125
vt 1 0.625
vt 0.25 0.625
vt 0.25 0.9375
vt 1 0.9375
vt 1 0.8125
vt 0.25 0.8125
vt 1 0.8125
vt 0.25 0.8125
vt 0.25 0.6875
vt 1 0.6875
vn 0 0 -1
vn 0 0 1
vn 0 1 0
vn 0 -1 0
usemtl m_77a0927f-3cea-f169-2f6b-7453e8632cd2
f 4/4/1 7/3/1 5/2/1 2/1/1
f 8/8/2 3/7/2 1/6/2 6/5/2
f 6/12/3 1/11/3 2/10/3 5/9/3
f 7/16/4 4/15/4 3/14/4 8/13/4
o cube
v 0.375 0.5625 0.0625
v 0.375 0.5625 -0.0625
v 0.375 0.375 0.0625
v 0.375 0.375 -0.0625
v -0.375 0.5625 -0.0625
v -0.375 0.5625 0.0625
v -0.375 0.375 -0.0625
v -0.375 0.375 0.0625
vt 0.25 0.8125
vt 1 0.8125
vt 1 0.625
vt 0.25 0.625
vt 0.25 0.8125
vt 1 0.8125
vt 1 0.625
vt 0.25 0.625
vt 0.25 0.9375
vt 1 0.9375
vt 1 0.8125
vt 0.25 0.8125
vt 1 0.8125
vt 0.25 0.8125
vt 0.25 0.6875
vt 1 0.6875
vn 0 0 -1
vn 0 0 1
vn 0 1 0
vn 0 -1 0
usemtl m_77a0927f-3cea-f169-2f6b-7453e8632cd2
f 12/20/5 15/19/5 13/18/5 10/17/5
f 16/24/6 11/23/6 9/22/6 14/21/6
f 14/28/7 9/27/7 10/26/7 13/25/7
f 15/32/8 12/31/8 11/30/8 16/29/8
o cube
v -0.375 1 0.125
v -0.375 1 -0.125
v -0.375 0 0.125
v -0.375 0 -0.125
v -0.625 1 -0.125
v -0.625 1 0.125
v -0.625 0 -0.125
v -0.625 0 0.125
vt 0 1
vt 0.25 1
vt 0.25 0
vt 0 0
vt 0 1
vt 0.25 1
vt 0.25 0
vt 0 0
vt 0 1
vt 0.25 1
vt 0.25 0
vt 0 0
vt 0 1
vt 0.25 1
vt 0.25 0
vt 0 0
vt 0.3125 0.5625
vt 0.5625 0.5625
vt 0.5625 0.3125
vt 0.3125 0.3125
vt 0.5625 0.5625
vt 0.3125 0.5625
vt 0.3125 0.3125
vt 0.5625 0.3125
vn 0 0 -1
vn 1 0 0
vn 0 0 1
vn -1 0 0
vn 0 1 0
vn 0 -1 0
usemtl m_77a0927f-3cea-f169-2f6b-7453e8632cd2
f 20/36/9 23/35/9 21/34/9 18/33/9
f 19/40/10 20/39/10 18/38/10 17/37/10
f 24/44/11 19/43/11 17/42/11 22/41/11
f 23/48/12 24/47/12 22/46/12 21/45/12
f 22/52/13 17/51/13 18/50/13 21/49/13
f 23/56/14 20/55/14 19/54/14 24/53/14
o cube
v 0.625 1 0.125
v 0.625 1 -0.125
v 0.625 0 0.125
v 0.625 0 -0.125
v 0.375 1 -0.125
v 0.375 1 0.125
v 0.375 0 -0.125
v 0.375 0 0.125
vt 0 1
vt 0.25 1
vt 0.25 0
vt 0 0
vt 0 1
vt 0.25 1
vt 0.25 0
vt 0 0
vt 0 1
vt 0.25 1
vt 0.25 0
vt 0 0
vt 0 1
vt 0.25 1
vt 0.25 0
vt 0 0
vt 0.3125 0.5625
vt 0.5625 0.5625
vt 0.5625 0.3125
vt 0.3125 0.3125
vt 0.5625 0.5625
vt 0.3125 0.5625
vt 0.3125 0.3125
vt 0.5625 0.3125
vn 0 0 -1
vn 1 0 0
vn 0 0 1
vn -1 0 0
vn 0 1 0
vn 0 -1 0
usemtl m_77a0927f-3cea-f169-2f6b-7453e8632cd2
f 28/60/15 31/59/15 29/58/15 26/57/15
f 27/64/16 28/63/16 26/62/16 25/61/16
f 32/68/17 27/67/17 25/66/17 30/65/17
f 31/72/18 32/71/18 30/70/18 29/69/18
f 30/76/19 25/75/19 26/74/19 29/73/19
f 31/80/20 28/79/20 27/78/20 32/77/20