# Made in Blockbench 4.10.3
mtllib mineral_ore.mtl

o cube
v 0.3125 0.8125 0.5625
v 0.3125 0.8125 -0.3125
v 0.3125 0 0.5625
v 0.3125 0 -0.3125
v -0.5625 0.8125 -0.3125
v -0.5625 0.8125 0.5625
v -0.5625 0 -0.3125
v -0.5625 0 0.5625
vt 0.109375 0.890625
vt 0.21875 0.890625
vt 0.21875 0.7890625
vt 0.109375 0.7890625
vt 0 0.890625
vt 0.109375 0.890625
vt 0.109375 0.7890625
vt 0 0.7890625
vt 0.328125 0.890625
vt 0.4375 0.890625
vt 0.4375 0.7890625
vt 0.328125 0.7890625
vt 0.21875 0.890625
vt 0.328125 0.890625
vt 0.328125 0.7890625
vt 0.21875 0.7890625
vt 0.21875 0.890625
vt 0.109375 0.890625
vt 0.109375 1
vt 0.21875 1
vn 0 0 -1
vn 1 0 0
vn 0 0 1
vn -1 0 0
vn 0 1 0
usemtl m_71a20d3a-d830-8666-22be-9fa5a92653ca
f 4/4/1 7/3/1 5/2/1 2/1/1
f 3/8/2 4/7/2 2/6/2 1/5/2
f 8/12/3 3/11/3 1/10/3 6/9/3
f 7/16/4 8/15/4 6/14/4 5/13/4
f 6/20/5 1/19/5 2/18/5 5/17/5
o cube
v 0.25 0.375 0.6875
v 0.25 0.375 -0.0625
v 0.25 0 0.6875
v 0.25 0 -0.0625
v -0.625 0.375 -0.0625
v -0.625 0.375 0.6875
v -0.625 0 -0.0625
v -0.625 0 0.6875
vt 0.109375 0.6953125
vt 0.203125 0.6953125
vt 0.203125 0.6484375
vt 0.109375 0.6484375
vt 0 0.6953125
vt 0.09375 0.6953125
vt 0.09375 0.6484375
vt 0 0.6484375
vt 0.296875 0.6953125
vt 0.40625 0.6953125
vt 0.40625 0.6484375
vt 0.296875 0.6484375
vt 0.203125 0.6953125
vt 0.296875 0.6953125
vt 0.296875 0.6484375
vt 0.203125 0.6484375
vt 0.203125 0.6953125
vt 0.09375 0.6953125
vt 0.09375 0.7890625
vt 0.203125 0.7890625
vn 0 0 -1
vn 1 0 0
vn 0 0 1
vn -1 0 0
vn 0 1 0
usemtl m_71a20d3a-d830-8666-22be-9fa5a92653ca
f 12/24/6 15/23/6 13/22/6 10/21/6
f 11/28/7 12/27/7 10/26/7 9/25/7
f 16/32/8 11/31/8 9/30/8 14/29/8
f 15/36/9 16/35/9 14/34/9 13/33/9
f 14/40/10 9/39/10 10/38/10 13/37/10
o cube
v 0.375 0.25 0.625
v 0.375 0.25 0.3125
v 0.375 0 0.625
v 0.375 0 0.3125
v 0.25 0.25 0.3125
v 0.25 0.25 0.625
v 0.25 0 0.3125
v 0.25 0 0.625
vt 0 0.9609375
vt 0.0390625 0.9609375
vt 0.0390625 0.9296875
vt 0 0.9296875
vt 0.09375 0.9609375
vt 0.109375 0.9609375
vt 0.109375 0.9296875
vt 0.09375 0.9296875
vt 0.0546875 0.9609375
vt 0.0390625 0.9609375
vt 0.0390625 1
vt 0.0546875 1
vn 1 0 0
vn 0 0 1
vn 0 1 0
usemtl m_71a20d3a-d830-8666-22be-9fa5a92653ca
f 19/44/11 20/43/11 18/42/11 17/41/11
f 24/48/12 19/47/12 17/46/12 22/45/12
f 22/52/13 17/51/13 18/50/13 21/49/13
o cube
v 0.4375 0.5 0.3125
v 0.4375 0.5 -0.4375
v 0.4375 0 0.3125
v 0.4375 0 -0.4375
v -0.0625 0.5 -0.4375
v -0.0625 0.5 0.3125
v -0.0625 0 -0.4375
v -0.0625 0 0.3125
vt 0.40625 0.6484375
vt 0.46875 0.6484375
vt 0.46875 0.5859375
vt 0.40625 0.5859375
vt 0.3125 0.6484375
vt 0.40625 0.6484375
vt 0.40625 0.5859375
vt 0.3125 0.5859375
vt 0.5625 0.6484375
vt 0.625 0.6484375
vt 0.625 0.5859375
vt 0.5625 0.5859375
vt 0.46875 0.6484375
vt 0.5625 0.6484375
vt 0.5625 0.5859375
vt 0.46875 0.5859375
vt 0.46875 0.6484375
vt 0.40625 0.6484375
vt 0.40625 0.7421875
vt 0.46875 0.7421875
vn 0 0 -1
vn 1 0 0
vn 0 0 1
vn -1 0 0
vn 0 1 0
usemtl m_71a20d3a-d830-8666-22be-9fa5a92653ca
f 28/56/14 31/55/14 29/54/14 26/53/14
f 27/60/15 28/59/15 26/58/15 25/57/15
f 32/64/16 27/63/16 25/62/16 30/61/16
f 31/68/17 32/67/17 30/66/17 29/65/17
f 30/72/18 25/71/18 26/70/18 29/69/18