# Made in Blockbench 4.10.3
mtllib sledgehammer.mtl

o handle
v 0.125 1.25 0.0625
v 0.125 1.25 -0.0625
v 0.125 0 0.0625
v 0.125 0 -0.0625
v 0 1.25 -0.0625
v 0 1.25 0.0625
v 0 0 -0.0625
v 0 0 0.0625
vt 0.0625 0.6875
vt 0.125 0.6875
vt 0.125 0.0625
vt 0.0625 0.0625
vt 0 0.6875
vt 0.0625 0.6875
vt 0.0625 0.0625
vt 0 0.0625
vt 0.1875 0.6875
vt 0.25 0.6875
vt 0.25 0.0625
vt 0.1875 0.0625
vt 0.125 0.6875
vt 0.1875 0.6875
vt 0.1875 0.0625
vt 0.125 0.0625
vt 0.1875 0.75
vt 0.125 0.75
vt 0.125 0.6875
vt 0.1875 0.6875
vn 0 0 -1
vn 1 0 0
vn 0 0 1
vn -1 0 0
vn 0 -1 0
usemtl m_f089bf69-3340-3f5b-0ea6-76d39679ef17
f 4/4/1 7/3/1 5/2/1 2/1/1
f 3/8/2 4/7/2 2/6/2 1/5/2
f 8/12/3 3/11/3 1/10/3 6/9/3
f 7/16/4 8/15/4 6/14/4 5/13/4
f 7/20/5 4/19/5 3/18/5 8/17/5
o hammer
v 0.375 1.5 0.125
v 0.375 1.5 -0.125
v 0.375 1.25 0.125
v 0.375 1.25 -0.125
v -0.25 1.5 -0.125
v -0.25 1.5 0.125
v -0.25 1.25 -0.125
v -0.25 1.25 0.125
vt 0.125 0.875
vt 0.4375 0.875
vt 0.4375 0.75
vt 0.125 0.75
vt 0 0.875
vt 0.125 0.875
vt 0.125 0.75
vt 0 0.75
vt 0.5625 0.875
vt 0.875 0.875
vt 0.875 0.75
vt 0.5625 0.75
vt 0.4375 0.875
vt 0.5625 0.875
vt 0.5625 0.75
vt 0.4375 0.75
vt 0.4375 0.875
vt 0.125 0.875
vt 0.125 1
vt 0.4375 1
vt 0.75 1
vt 0.4375 1
vt 0.4375 0.875
vt 0.75 0.875
vn 0 0 -1
vn 1 0 0
vn 0 0 1
vn -1 0 0
vn 0 1 0
vn 0 -1 0
usemtl m_f089bf69-3340-3f5b-0ea6-76d39679ef17
f 12/24/6 15/23/6 13/22/6 10/21/6
f 11/28/7 12/27/7 10/26/7 9/25/7
f 16/32/8 11/31/8 9/30/8 14/29/8
f 15/36/9 16/35/9 14/34/9 13/33/9
f 14/40/10 9/39/10 10/38/10 13/37/10
f 15/44/11 12/43/11 11/42/11 16/41/11